<?xml version="1.0" standalone="no"?>
<!DOCTYPE svg PUBLIC "-//W3C//DTD SVG 20010904//EN"
 "http://www.w3.org/TR/2001/REC-SVG-20010904/DTD/svg10.dtd">
<svg version="1.0" xmlns="http://www.w3.org/2000/svg"
 width="500.000000pt" height="500.000000pt" viewBox="0 0 500.000000 500.000000"
 preserveAspectRatio="xMidYMid meet">

<g transform="translate(0.000000,500.000000) scale(0.100000,-0.100000)"
fill="#000000" stroke="none">
<path d="M2321 3640 c-40 -9 -117 -39 -170 -65 -81 -41 -110 -62 -186 -139
-138 -140 -210 -294 -222 -483 -30 -458 343 -837 797 -810 124 7 194 27 310
84 78 40 111 63 186 138 77 76 98 104 138 185 83 169 107 340 71 509 -49 234
-219 443 -440 540 -136 61 -336 78 -484 41z m159 -165 c0 -126 1 -135 19 -135
27 0 31 18 31 151 0 120 0 120 23 113 59 -18 125 -91 176 -191 17 -34 31 -67
31 -72 0 -6 -16 -13 -36 -17 -34 -6 -54 -27 -40 -42 4 -3 28 -6 53 -7 l47 0
11 -45 c8 -34 16 -45 30 -45 22 0 25 24 12 80 -7 29 -6 31 35 42 24 6 51 15
60 18 13 5 22 -5 41 -42 44 -88 87 -247 87 -325 0 -26 -2 -28 -44 -28 -57 0
-76 -8 -76 -31 0 -17 8 -19 60 -19 l60 0 0 -33 c0 -81 -41 -239 -86 -328 l-23
-46 -61 16 c-61 16 -61 16 -54 46 13 58 10 80 -11 80 -14 0 -22 -11 -30 -45
l-11 -45 -50 0 c-42 0 -49 -3 -49 -20 0 -14 9 -21 33 -26 18 -4 36 -9 39 -12
8 -9 -49 -125 -86 -175 -28 -38 -111 -102 -133 -102 -4 0 -8 55 -8 123 0 88
-4 129 -13 142 -28 38 -37 7 -37 -131 l0 -135 -22 6 c-45 14 -90 48 -128 99
-41 55 -96 164 -87 173 4 3 21 8 39 12 24 5 33 12 33 26 0 17 -6 20 -47 17
l-47 -3 -13 48 c-10 36 -18 48 -33 48 -22 0 -23 -13 -11 -75 l7 -35 -60 -16
-60 -15 -35 75 c-38 81 -61 167 -72 269 l-7 62 61 0 c35 0 64 5 68 12 12 19
-27 38 -79 38 l-49 0 7 63 c17 149 89 345 121 333 9 -4 37 -11 61 -18 45 -11
45 -11 37 -47 -12 -63 -11 -76 11 -76 15 0 23 12 33 48 l14 48 46 -3 c41 -3
47 -1 47 17 0 14 -10 22 -38 28 -44 11 -44 16 5 109 39 74 91 134 137 158 62
33 61 34 61 -115z m-194 54 c-15 -17 -44 -67 -64 -110 -40 -85 -40 -85 -117
-55 l-29 12 74 76 c65 65 147 124 159 112 2 -2 -9 -17 -23 -35z m564 -77 l75
-75 -30 -12 c-76 -31 -79 -29 -105 31 -12 31 -38 79 -57 107 -18 27 -36 54
-39 59 -4 5 14 -1 37 -13 24 -12 78 -56 119 -97z m-767 1 c-25 -32 -50 -58
-55 -57 -4 1 -13 2 -20 3 -15 2 17 36 72 77 25 19 46 34 48 34 1 0 -19 -26
-45 -57z m863 5 c30 -24 54 -46 54 -49 0 -7 -32 -22 -34 -17 -1 2 -21 27 -44
56 -24 28 -40 52 -37 52 4 0 31 -19 61 -42z m-972 -182 c-35 -74 -74 -209 -74
-256 0 -15 -3 -42 -6 -59 -6 -30 -9 -31 -55 -31 -49 0 -49 0 -49 33 0 93 64
263 135 359 32 44 37 47 59 37 l24 -11 -34 -72z m1160 -46 c40 -75 76 -200 76
-262 l0 -38 -49 0 -49 0 -7 63 c-9 86 -40 199 -78 281 -30 67 -31 69 -12 83
18 13 23 11 52 -22 17 -20 47 -67 67 -105z m-1239 -407 c10 -96 43 -222 77
-296 31 -68 32 -70 13 -84 -18 -13 -22 -11 -43 14 -76 93 -138 242 -149 359
l-6 64 51 0 51 0 6 -57z m1315 14 c0 -163 -159 -461 -206 -386 -3 6 8 41 25
78 36 79 66 189 76 284 l7 67 49 0 49 0 0 -43z m-996 -439 c13 -31 40 -80 60
-108 21 -29 36 -54 34 -56 -2 -2 -32 15 -66 37 -61 40 -167 147 -156 158 9 9
77 29 92 28 7 -1 24 -28 36 -59z m650 50 c22 -6 45 -14 49 -18 13 -11 -88
-115 -155 -160 -34 -22 -63 -38 -66 -36 -2 3 8 19 22 37 15 17 44 67 64 110
20 44 39 79 41 79 2 0 22 -5 45 -12z m-779 -101 l49 -62 -39 29 c-60 44 -95
78 -89 88 12 18 31 5 79 -55z m909 54 c6 -10 -58 -72 -94 -91 -17 -9 -11 3 21
43 43 54 62 67 73 48z"/>
<path d="M2460 3304 c-152 -25 -263 -104 -324 -234 -29 -60 -31 -73 -31 -170
0 -97 2 -110 31 -170 39 -83 111 -155 194 -194 60 -29 73 -31 170 -31 97 0
110 2 170 31 285 135 316 525 56 698 -77 51 -193 81 -266 70z m-12 -137 c3
-31 7 -37 27 -37 20 0 24 6 27 38 2 29 7 37 23 37 16 0 21 -8 23 -37 2 -28 8
-38 20 -38 29 0 80 -38 98 -71 20 -40 14 -102 -14 -132 -20 -22 -20 -22 4 -57
49 -70 18 -161 -64 -190 -38 -13 -42 -18 -42 -46 0 -18 -6 -34 -12 -37 -25 -8
-38 6 -38 39 0 30 -3 34 -25 34 -22 0 -25 -4 -25 -34 0 -19 -6 -36 -12 -39
-25 -8 -38 5 -38 39 0 32 -1 33 -47 36 -41 3 -48 6 -51 26 -3 19 1 22 32 22
l36 0 0 180 0 180 -35 0 c-31 0 -35 3 -35 25 0 23 3 25 50 25 l50 0 0 33 c0
38 7 49 30 45 9 -2 16 -16 18 -41z"/>
<path d="M2430 3005 l0 -75 74 0 c89 0 119 18 119 70 0 55 -39 80 -124 80
l-69 0 0 -75z"/>
<path d="M2430 2794 l0 -76 75 4 c86 4 118 25 118 77 0 55 -25 71 -115 71
l-78 0 0 -76z"/>
<path d="M725 1963 c-32 -8 -74 -42 -90 -73 -24 -47 -20 -150 8 -191 29 -44
60 -59 122 -59 81 0 95 7 95 46 l0 34 -55 -6 c-76 -9 -95 8 -95 87 0 51 3 60
27 79 17 13 35 19 48 16 64 -18 62 -19 74 15 6 17 11 33 11 35 0 2 -17 8 -37
13 -39 11 -74 12 -108 4z"/>
<path d="M2010 1953 c-56 -29 -80 -75 -80 -152 0 -112 48 -161 157 -161 77 0
115 23 138 84 13 33 16 62 12 102 -10 92 -48 132 -139 140 -39 4 -62 1 -88
-13z m107 -68 c38 -27 42 -124 6 -160 -8 -8 -27 -15 -43 -15 -39 0 -60 32 -60
93 0 38 5 53 25 72 28 29 42 31 72 10z"/>
<path d="M2395 1963 c-32 -8 -74 -42 -90 -73 -24 -47 -20 -150 8 -191 29 -44
60 -59 122 -59 81 0 95 7 95 46 l0 34 -55 -6 c-76 -9 -95 8 -95 87 0 51 3 60
27 79 17 13 35 19 48 16 64 -18 62 -19 74 15 6 17 11 33 11 35 0 2 -17 8 -37
13 -39 11 -74 12 -108 4z"/>
<path d="M3906 1960 c-62 -20 -96 -76 -96 -161 0 -63 24 -116 64 -140 42 -26
140 -26 182 0 84 51 86 223 4 283 -30 21 -113 31 -154 18z m101 -86 c22 -22
25 -32 21 -79 -5 -63 -20 -85 -57 -85 -46 0 -64 21 -69 83 -4 50 -2 58 21 81
15 14 33 26 42 26 9 0 27 -12 42 -26z"/>
<path d="M4233 1959 c-41 -12 -63 -44 -63 -90 0 -43 29 -76 90 -104 27 -12 40
-24 40 -38 0 -18 -5 -19 -52 -15 -29 3 -61 9 -70 13 -15 6 -18 2 -18 -29 0
-44 19 -56 95 -56 89 0 135 33 135 97 0 40 -24 70 -80 98 -57 29 -65 38 -45
55 13 11 33 10 86 -6 12 -3 20 5 28 27 6 18 11 33 11 34 0 5 -90 25 -107 24
-10 0 -32 -5 -50 -10z"/>
<path d="M920 1801 l0 -161 45 0 45 0 0 61 c0 75 12 74 58 -4 l33 -57 50 0 49
0 -47 72 c-32 48 -44 73 -35 76 17 5 42 56 42 86 0 14 -11 38 -24 53 -23 26
-29 28 -120 31 l-96 4 0 -161z m138 87 c18 -18 14 -46 -7 -58 -33 -17 -41 -11
-41 30 0 32 4 40 18 40 10 0 23 -5 30 -12z"/>
<path d="M1230 1800 l0 -160 45 0 45 0 0 160 0 160 -45 0 -45 0 0 -160z"/>
<path d="M1380 1801 l0 -161 45 0 45 0 0 55 0 55 40 0 c30 0 48 7 72 29 29 26
33 35 33 80 0 80 -22 95 -140 99 l-95 4 0 -161z m147 73 c8 -22 -9 -48 -36
-52 -18 -3 -21 1 -21 32 0 32 3 36 25 36 15 0 28 -7 32 -16z"/>
<path d="M1650 1925 c0 -34 1 -35 40 -35 l40 0 0 -125 0 -125 40 0 40 0 0 125
0 125 40 0 c39 0 40 1 40 35 l0 35 -120 0 -120 0 0 -35z"/>
<path d="M2617 1823 c-25 -76 -48 -148 -51 -160 -7 -22 -4 -23 39 -23 42 0 47
3 56 30 10 28 14 30 64 30 50 0 53 -1 59 -30 5 -28 8 -30 51 -30 25 0 45 3 45
8 0 4 -22 75 -48 157 l-48 150 -61 3 -62 3 -44 -138z m133 -35 c0 -14 -8 -18
-31 -18 -34 0 -34 -5 -7 95 l10 40 14 -50 c7 -27 13 -58 14 -67z"/>
<path d="M2920 1800 l0 -160 41 0 41 0 -4 110 c-1 61 -2 110 -1 110 1 0 9 -25
17 -55 9 -30 23 -80 32 -110 l15 -55 42 0 42 0 32 113 31 112 1 -112 1 -113
40 0 40 0 0 160 0 160 -60 0 -59 0 -21 -72 c-12 -40 -26 -90 -33 -111 -13 -46
-15 -42 -52 86 l-28 97 -58 0 -59 0 0 -160z"/>
<path d="M3360 1799 l0 -161 95 4 c87 3 97 5 122 30 35 36 37 92 4 119 l-22
18 20 23 c21 22 26 52 15 83 -12 30 -60 45 -149 45 l-85 0 0 -161z m138 92
c25 -16 9 -46 -26 -49 -28 -3 -32 0 -32 21 0 13 3 27 7 30 9 10 35 8 51 -2z
m-11 -117 c48 -13 34 -64 -18 -64 -25 0 -29 4 -29 28 0 41 7 47 47 36z"/>
<path d="M3660 1800 l0 -160 45 0 45 0 0 160 0 160 -45 0 -45 0 0 -160z"/>
</g>
</svg>
